<svg width="1000" heigth="1000" version="1.1" xmlns="http://www.w3.org/2000/svg"><rect x="0" y="0" width="100%" height="100%" fill="#aaa" /><rect x="0" y="0" width="100" height="100" stroke="#000" stroke-width="3" fill="#ccc" /><rect x="100" y="0" width="100" height="100" stroke="#000" stroke-width="3" fill="#ccc" /><rect x="200" y="0" width="100" height="100" stroke="#000" stroke-width="3" fill="#ccc" /><rect x="300" y="0" width="100" height="100" stroke="#000" stroke-width="3" fill="#ccc" /><rect x="400" y="0" width="100" height="100" stroke="#000" stroke-width="3" fill="#ccc" /><rect x="500" y="0" width="100" height="100" stroke="#000" stroke-width="3" fill="#ccc" /><rect x="600" y="0" width="100" height="100" stroke="#000" stroke-width="3" fill="#ccc" /><rect x="700" y="0" width="100" height="100" stroke="#000" stroke-width="3" fill="#ccc" /><rect x="800" y="0" width="100" height="100" stroke="#000" stroke-width="3" fill="#ccc" /><rect x="900" y="0" width="100" height="100" stroke="#000" stroke-width="3" fill="#ccc" /><rect x="0" y="100" width="100" height="100" stroke="#000" stroke-width="3" fill="#ccc" /><rect x="100" y="100" width="100" height="100" stroke="#000" stroke-width="3" fill="#ccc" /><rect x="200" y="100" width="100" height="100" stroke="#000" stroke-width="3" fill="#ccc" /><rect x="300" y="100" width="100" height="100" stroke="#000" stroke-width="3" fill="#ccc" /><rect x="400" y="100" width="100" height="100" stroke="#000" stroke-width="3" fill="#ccc" /><rect x="500" y="100" width="100" height="100" stroke="#000" stroke-width="3" fill="#ccc" /><rect x="600" y="100" width="100" height="100" stroke="#000" stroke-width="3" fill="#ccc" /><rect x="700" y="100" width="100" height="100" stroke="#000" stroke-width="3" fill="#ccc" /><rect x="800" y="100" width="100" height="100" stroke="#000" stroke-width="3" fill="#ccc" /><rect x="900" y="100" width="100" height="100" stroke="#000" stroke-width="3" fill="#ccc" /><rect x="0" y="200" width="100" height="100" stroke="#000" stroke-width="3" fill="#ccc" /><rect x="100" y="200" width="100" height="100" stroke="#000" stroke-width="3" fill="#ccc" /><rect x="200" y="200" width="100" height="100" stroke="#000" stroke-width="3" fill="#ccc" /><rect x="300" y="200" width="100" height="100" stroke="#000" stroke-width="3" fill="#ccc" /><rect x="400" y="200" width="100" height="100" stroke="#000" stroke-width="3" fill="#ccc" /><rect x="500" y="200" width="100" height="100" stroke="#000" stroke-width="3" fill="#ccc" /><rect x="600" y="200" width="100" height="100" stroke="#000" stroke-width="3" fill="#ccc" /><rect x="700" y="200" width="100" height="100" stroke="#000" stroke-width="3" fill="#ccc" /><rect x="800" y="200" width="100" height="100" stroke="#000" stroke-width="3" fill="#ccc" /><rect x="900" y="200" width="100" height="100" stroke="#000" stroke-width="3" fill="#ccc" /><rect x="0" y="300" width="100" height="100" stroke="#000" stroke-width="3" fill="#ccc" /><rect x="100" y="300" width="100" height="100" stroke="#000" stroke-width="3" fill="#ccc" /><rect x="200" y="300" width="100" height="100" stroke="#000" stroke-width="3" fill="#ccc" /><rect x="300" y="300" width="100" height="100" stroke="#000" stroke-width="3" fill="#ccc" /><rect x="400" y="300" width="100" height="100" stroke="#000" stroke-width="3" fill="#ee8c56" /><text x="450" y="320" text-anchor="middle" alignment-baseline="middle" font-family="sans-serif" font-size="20" fill="#000">Tank 1</text><text x="450" y="340" text-anchor="middle" alignment-baseline="middle" font-family="sans-serif" font-size="20" fill="#000">Health: 3</text><text x="450" y="360" text-anchor="middle" alignment-baseline="middle" font-family="sans-serif" font-size="20" fill="#000">Chips: 3</text><text x="450" y="380" text-anchor="middle" alignment-baseline="middle" font-family="sans-serif" font-size="20" fill="#000">Range: 2</text><rect x="500" y="300" width="100" height="100" stroke="#000" stroke-width="3" fill="#ccc" /><rect x="600" y="300" width="100" height="100" stroke="#000" stroke-width="3" fill="#166336" /><text x="650" y="320" text-anchor="middle" alignment-baseline="middle" font-family="sans-serif" font-size="20" fill="#000">Tank 2</text><text x="650" y="340" text-anchor="middle" alignment-baseline="middle" font-family="sans-serif" font-size="20" fill="#000">Health: 2</text><text x="650" y="360" text-anchor="middle" alignment-baseline="middle" font-family="sans-serif" font-size="20" fill="#000">Chips: 5</text><text x="650" y="380" text-anchor="middle" alignment-baseline="middle" font-family="sans-serif" font-size="20" fill="#000">Range: 1</text><rect x="700" y="300" width="100" height="100" stroke="#000" stroke-width="3" fill="#ccc" /><rect x="800" y="300" width="100" height="100" stroke="#000" stroke-width="3" fill="#ccc" /><rect x="900" y="300" width="100" height="100" stroke="#000" stroke-width="3" fill="#ccc" /><rect x="0" y="400" width="100" height="100" stroke="#000" stroke-width="3" fill="#ccc" /><rect x="100" y="400" width="100" height="100" stroke="#000" stroke-width="3" fill="#ccc" /><rect x="200" y="400" width="100" height="100" stroke="#000" stroke-width="3" fill="#ccc" /><rect x="300" y="400" width="100" height="100" stroke="#000" stroke-width="3" fill="#ccc" /><rect x="400" y="400" width="100" height="100" stroke="#000" stroke-width="3" fill="#ccc" /><rect x="500" y="400" width="100" height="100" stroke="#000" stroke-width="3" fill="#ccc" /><rect x="600" y="400" width="100" height="100" stroke="#000" stroke-width="3" fill="#ccc" /><rect x="700" y="400" width="100" height="100" stroke="#000" stroke-width="3" fill="#ccc" /><rect x="800" y="400" width="100" height="100" stroke="#000" stroke-width="3" fill="#ccc" /><rect x="900" y="400" width="100" height="100" stroke="#000" stroke-width="3" fill="#ccc" /><rect x="0" y="500" width="100" height="100" stroke="#000" stroke-width="3" fill="#ccc" /><rect x="100" y="500" width="100" height="100" stroke="#000" stroke-width="3" fill="#ccc" /><rect x="200" y="500" width="100" height="100" stroke="#000" stroke-width="3" fill="#ccc" /><rect x="300" y="500" width="100" height="100" stroke="#000" stroke-width="3" fill="#ccc" /><rect x="400" y="500" width="100" height="100" stroke="#000" stroke-width="3" fill="#ccc" /><rect x="500" y="500" width="100" height="100" stroke="#000" stroke-width="3" fill="#ccc" /><rect x="600" y="500" width="100" height="100" stroke="#000" stroke-width="3" fill="#ccc" /><rect x="700" y="500" width="100" height="100" stroke="#000" stroke-width="3" fill="#ccc" /><rect x="800" y="500" width="100" height="100" stroke="#000" stroke-width="3" fill="#ccc" /><rect x="900" y="500" width="100" height="100" stroke="#000" stroke-width="3" fill="#ccc" /><rect x="0" y="600" width="100" height="100" stroke="#000" stroke-width="3" fill="#ccc" /><rect x="100" y="600" width="100" height="100" stroke="#000" stroke-width="3" fill="#ccc" /><rect x="200" y="600" width="100" height="100" stroke="#000" stroke-width="3" fill="#ccc" /><rect x="300" y="600" width="100" height="100" stroke="#000" stroke-width="3" fill="#ccc" /><rect x="400" y="600" width="100" height="100" stroke="#000" stroke-width="3" fill="#ccc" /><rect x="500" y="600" width="100" height="100" stroke="#000" stroke-width="3" fill="#ccc" /><rect x="600" y="600" width="100" height="100" stroke="#000" stroke-width="3" fill="#ccc" /><rect x="700" y="600" width="100" height="100" stroke="#000" stroke-width="3" fill="#ccc" /><rect x="800" y="600" width="100" height="100" stroke="#000" stroke-width="3" fill="#ccc" /><rect x="900" y="600" width="100" height="100" stroke="#000" stroke-width="3" fill="#ccc" /><rect x="0" y="700" width="100" height="100" stroke="#000" stroke-width="3" fill="#ccc" /><rect x="100" y="700" width="100" height="100" stroke="#000" stroke-width="3" fill="#ccc" /><rect x="200" y="700" width="100" height="100" stroke="#000" stroke-width="3" fill="#ccc" /><rect x="300" y="700" width="100" height="100" stroke="#000" stroke-width="3" fill="#ccc" /><rect x="400" y="700" width="100" height="100" stroke="#000" stroke-width="3" fill="#ccc" /><rect x="500" y="700" width="100" height="100" stroke="#000" stroke-width="3" fill="#ccc" /><rect x="600" y="700" width="100" height="100" stroke="#000" stroke-width="3" fill="#ccc" /><rect x="700" y="700" width="100" height="100" stroke="#000" stroke-width="3" fill="#ccc" /><rect x="800" y="700" width="100" height="100" stroke="#000" stroke-width="3" fill="#ccc" /><rect x="900" y="700" width="100" height="100" stroke="#000" stroke-width="3" fill="#ccc" /><rect x="0" y="800" width="100" height="100" stroke="#000" stroke-width="3" fill="#ccc" /><rect x="100" y="800" width="100" height="100" stroke="#000" stroke-width="3" fill="#ccc" /><rect x="200" y="800" width="100" height="100" stroke="#000" stroke-width="3" fill="#ccc" /><rect x="300" y="800" width="100" height="100" stroke="#000" stroke-width="3" fill="#ccc" /><rect x="400" y="800" width="100" height="100" stroke="#000" stroke-width="3" fill="#ccc" /><rect x="500" y="800" width="100" height="100" stroke="#000" stroke-width="3" fill="#ccc" /><rect x="600" y="800" width="100" height="100" stroke="#000" stroke-width="3" fill="#ccc" /><rect x="700" y="800" width="100" height="100" stroke="#000" stroke-width="3" fill="#ccc" /><rect x="800" y="800" width="100" height="100" stroke="#000" stroke-width="3" fill="#ccc" /><rect x="900" y="800" width="100" height="100" stroke="#000" stroke-width="3" fill="#ccc" /><rect x="0" y="900" width="100" height="100" stroke="#000" stroke-width="3" fill="#ccc" /><rect x="100" y="900" width="100" height="100" stroke="#000" stroke-width="3" fill="#ccc" /><rect x="200" y="900" width="100" height="100" stroke="#000" stroke-width="3" fill="#ccc" /><rect x="300" y="900" width="100" height="100" stroke="#000" stroke-width="3" fill="#ccc" /><rect x="400" y="900" width="100" height="100" stroke="#000" stroke-width="3" fill="#ccc" /><rect x="500" y="900" width="100" height="100" stroke="#000" stroke-width="3" fill="#ccc" /><rect x="600" y="900" width="100" height="100" stroke="#000" stroke-width="3" fill="#ccc" /><rect x="700" y="900" width="100" height="100" stroke="#000" stroke-width="3" fill="#ccc" /><rect x="800" y="900" width="100" height="100" stroke="#000" stroke-width="3" fill="#ccc" /><rect x="900" y="900" width="100" height="100" stroke="#000" stroke-width="3" fill="#ccc" /><rect x="0" y="1000" width="100" height="100" stroke="#000" stroke-width="3" fill="#ccc" /><rect x="100" y="1000" width="100" height="100" stroke="#000" stroke-width="3" fill="#ccc" /><rect x="200" y="1000" width="100" height="100" stroke="#000" stroke-width="3" fill="#ccc" /><rect x="300" y="1000" width="100" height="100" stroke="#000" stroke-width="3" fill="#ccc" /><rect x="400" y="1000" width="100" height="100" stroke="#000" stroke-width="3" fill="#ccc" /><rect x="500" y="1000" width="100" height="100" stroke="#000" stroke-width="3" fill="#ccc" /><rect x="600" y="1000" width="100" height="100" stroke="#000" stroke-width="3" fill="#ccc" /><rect x="700" y="1000" width="100" height="100" stroke="#000" stroke-width="3" fill="#ccc" /><rect x="800" y="1000" width="100" height="100" stroke="#000" stroke-width="3" fill="#ccc" /><rect x="900" y="1000" width="100" height="100" stroke="#000" stroke-width="3" fill="#ccc" /><rect x="0" y="1100" width="100" height="100" stroke="#000" stroke-width="3" fill="#ccc" /><rect x="100" y="1100" width="100" height="100" stroke="#000" stroke-width="3" fill="#ccc" /><rect x="200" y="1100" width="100" height="100" stroke="#000" stroke-width="3" fill="#ccc" /><rect x="300" y="1100" width="100" height="100" stroke="#000" stroke-width="3" fill="#ccc" /><rect x="400" y="1100" width="100" height="100" stroke="#000" stroke-width="3" fill="#ccc" /><rect x="500" y="1100" width="100" height="100" stroke="#000" stroke-width="3" fill="#ccc" /><rect x="600" y="1100" width="100" height="100" stroke="#000" stroke-width="3" fill="#ccc" /><rect x="700" y="1100" width="100" height="100" stroke="#000" stroke-width="3" fill="#ccc" /><rect x="800" y="1100" width="100" height="100" stroke="#000" stroke-width="3" fill="#ccc" /><rect x="900" y="1100" width="100" height="100" stroke="#000" stroke-width="3" fill="#ccc" /></svg>